{"asset":{"version":"2.0","generator":"Blockbench 4.8.1 glTF exporter"},"scenes":[{"nodes":[13],"name":"blockbench_export"}],"scene":0,"nodes":[{"name":"roof2","mesh":0},{"name":"housesupportbeams","mesh":1},{"name":"housesupportbeams","mesh":2},{"name":"housesupportbeams","mesh":3},{"name":"housesupportbeams","mesh":4},{"name":"housesupportbeams","mesh":5},{"name":"housesupportbeams","mesh":6},{"name":"housesupportbeams","mesh":7},{"name":"housesupportbeams","mesh":8},{"name":"housesupportbeams","mesh":9},{"name":"housesupportbeams","mesh":10},{"name":"housesupportbeams","mesh":11},{"name":"housesupportbeams","mesh":12},{"children":[0,1,2,3,4,5,6,7,8,9,10,11,12]}],"bufferViews":[{"buffer":0,"byteOffset":0,"byteLength":288,"target":34962,"byteStride":12},{"buffer":0,"byteOffset":288,"byteLength":288,"target":34962,"byteStride":12},{"buffer":0,"byteOffset":576,"byteLength":192,"target":34962,"byteStride":8},{"buffer":0,"byteOffset":768,"byteLength":72,"target":34963},{"buffer":0,"byteOffset":840,"byteLength":480,"target":34962,"byteStride":12},{"buffer":0,"byteOffset":1320,"byteLength":480,"target":34962,"byteStride":12},{"buffer":0,"byteOffset":1800,"byteLength":320,"target":34962,"byteStride":8},{"buffer":0,"byteOffset":2120,"byteLength":120,"target":34963},{"buffer":0,"byteOffset":2240,"byteLength":480,"target":34962,"byteStride":12},{"buffer":0,"byteOffset":2720,"byteLength":480,"target":34962,"byteStride":12},{"buffer":0,"byteOffset":3200,"byteLength":320,"target":34962,"byteStride":8},{"buffer":0,"byteOffset":3520,"byteLength":120,"target":34963},{"buffer":0,"byteOffset":3640,"byteLength":480,"target":34962,"byteStride":12},{"buffer":0,"byteOffset":4120,"byteLength":480,"target":34962,"byteStride":12},{"buffer":0,"byteOffset":4600,"byteLength":320,"target":34962,"byteStride":8},{"buffer":0,"byteOffset":4920,"byteLength":120,"target":34963},{"buffer":0,"byteOffset":5040,"byteLength":480,"target":34962,"byteStride":12},{"buffer":0,"byteOffset":5520,"byteLength":480,"target":34962,"byteStride":12},{"buffer":0,"byteOffset":6000,"byteLength":320,"target":34962,"byteStride":8},{"buffer":0,"byteOffset":6320,"byteLength":120,"target":34963},{"buffer":0,"byteOffset":6440,"byteLength":480,"target":34962,"byteStride":12},{"buffer":0,"byteOffset":6920,"byteLength":480,"target":34962,"byteStride":12},{"buffer":0,"byteOffset":7400,"byteLength":320,"target":34962,"byteStride":8},{"buffer":0,"byteOffset":7720,"byteLength":120,"target":34963},{"buffer":0,"byteOffset":7840,"byteLength":1248,"target":34962,"byteStride":12},{"buffer":0,"byteOffset":9088,"byteLength":1248,"target":34962,"byteStride":12},{"buffer":0,"byteOffset":10336,"byteLength":832,"target":34962,"byteStride":8},{"buffer":0,"byteOffset":11168,"byteLength":312,"target":34963},{"buffer":0,"byteOffset":11480,"byteLength":480,"target":34962,"byteStride":12},{"buffer":0,"byteOffset":11960,"byteLength":480,"target":34962,"byteStride":12},{"buffer":0,"byteOffset":12440,"byteLength":320,"target":34962,"byteStride":8},{"buffer":0,"byteOffset":12760,"byteLength":120,"target":34963},{"buffer":0,"byteOffset":12880,"byteLength":480,"target":34962,"byteStride":12},{"buffer":0,"byteOffset":13360,"byteLength":480,"target":34962,"byteStride":12},{"buffer":0,"byteOffset":13840,"byteLength":320,"target":34962,"byteStride":8},{"buffer":0,"byteOffset":14160,"byteLength":120,"target":34963},{"buffer":0,"byteOffset":14280,"byteLength":480,"target":34962,"byteStride":12},{"buffer":0,"byteOffset":14760,"byteLength":480,"target":34962,"byteStride":12},{"buffer":0,"byteOffset":15240,"byteLength":320,"target":34962,"byteStride":8},{"buffer":0,"byteOffset":15560,"byteLength":120,"target":34963},{"buffer":0,"byteOffset":15680,"byteLength":480,"target":34962,"byteStride":12},{"buffer":0,"byteOffset":16160,"byteLength":480,"target":34962,"byteStride":12},{"buffer":0,"byteOffset":16640,"byteLength":320,"target":34962,"byteStride":8},{"buffer":0,"byteOffset":16960,"byteLength":120,"target":34963},{"buffer":0,"byteOffset":17080,"byteLength":1248,"target":34962,"byteStride":12},{"buffer":0,"byteOffset":18328,"byteLength":1248,"target":34962,"byteStride":12},{"buffer":0,"byteOffset":19576,"byteLength":832,"target":34962,"byteStride":8},{"buffer":0,"byteOffset":20408,"byteLength":312,"target":34963},{"buffer":0,"byteOffset":20720,"byteLength":480,"target":34962,"byteStride":12},{"buffer":0,"byteOffset":21200,"byteLength":480,"target":34962,"byteStride":12},{"buffer":0,"byteOffset":21680,"byteLength":320,"target":34962,"byteStride":8},{"buffer":0,"byteOffset":22000,"byteLength":120,"target":34963}],"buffers":[{"byteLength":22120,"uri":"data:application/octet-stream;base64,"}],"accessors":[{"bufferView":0,"componentType":5126,"count":24,"max":[3.981250047683716,11.25,3.9124999046325684],"min":[-3.518749952316284,8,-4.087500095367432],"type":"VEC3"},{"bufferView":1,"componentType":5126,"count":24,"max":[1,1,1],"min":[-0.5309163928031921,-1,-1],"type":"VEC3"},{"bufferView":2,"componentType":5126,"count":24,"max":[0.501953125,0.44140625],"min":[0,0],"type":"VEC2"},{"bufferView":3,"componentType":5123,"count":36,"max":[23],"min":[0],"type":"SCALAR"},{"bufferView":4,"componentType":5126,"count":40,"max":[-0.59375,8.024999618530273,4.931250095367432],"min":[-1.28125,7.337500095367432,-5.068749904632568],"type":"VEC3"},{"bufferView":5,"componentType":5126,"count":40,"max":[1,1,1],"min":[-1,-1,-1],"type":"VEC3"},{"bufferView":6,"componentType":5126,"count":40,"max":[0.3828125,1],"min":[0,0],"type":"VEC2"},{"bufferView":7,"componentType":5123,"count":60,"max":[39],"min":[0],"type":"SCALAR"},{"bufferView":8,"componentType":5126,"count":40,"max":[5.125,8.03125,4.15625],"min":[-4.875,7.34375,3.46875],"type":"VEC3"},{"bufferView":9,"componentType":5126,"count":40,"max":[1,1,1],"min":[-1,-1,-1],"type":"VEC3"},{"bufferView":10,"componentType":5126,"count":40,"max":[0.3828125,1],"min":[0,0],"type":"VEC2"},{"bufferView":11,"componentType":5123,"count":60,"max":[39],"min":[0],"type":"SCALAR"},{"bufferView":12,"componentType":5126,"count":40,"max":[1.84375,8.024999618530273,4.931250095367432],"min":[1.15625,7.337500095367432,-5.068749904632568],"type":"VEC3"},{"bufferView":13,"componentType":5126,"count":40,"max":[1,1,1],"min":[-1,-1,-1],"type":"VEC3"},{"bufferView":14,"componentType":5126,"count":40,"max":[0.3828125,1],"min":[0,0],"type":"VEC2"},{"bufferView":15,"componentType":5123,"count":60,"max":[39],"min":[0],"type":"SCALAR"},{"bufferView":16,"componentType":5126,"count":40,"max":[4.21875,8.024999618530273,4.931250095367432],"min":[3.53125,7.337500095367432,-5.068749904632568],"type":"VEC3"},{"bufferView":17,"componentType":5126,"count":40,"max":[1,1,1],"min":[-1,-1,-1],"type":"VEC3"},{"bufferView":18,"componentType":5126,"count":40,"max":[0.3828125,1],"min":[0,0],"type":"VEC2"},{"bufferView":19,"componentType":5123,"count":60,"max":[39],"min":[0],"type":"SCALAR"},{"bufferView":20,"componentType":5126,"count":40,"max":[-3.28125,8.009374618530273,4.931250095367432],"min":[-3.96875,7.321875095367432,-5.068749904632568],"type":"VEC3"},{"bufferView":21,"componentType":5126,"count":40,"max":[1,1,1],"min":[-1,-1,-1],"type":"VEC3"},{"bufferView":22,"componentType":5126,"count":40,"max":[0.3828125,1],"min":[0,0],"type":"VEC2"},{"bufferView":23,"componentType":5123,"count":60,"max":[39],"min":[0],"type":"SCALAR"},{"bufferView":24,"componentType":5126,"count":104,"max":[4.25,11.837499618530273,4.137499809265137],"min":[-5.375,6.275000095367432,3.450000047683716],"type":"VEC3"},{"bufferView":25,"componentType":5126,"count":104,"max":[1,1,1],"min":[-1,-1,-1],"type":"VEC3"},{"bufferView":26,"componentType":5126,"count":104,"max":[0.3828125,1],"min":[0,0],"type":"VEC2"},{"bufferView":27,"componentType":5123,"count":156,"max":[103],"min":[0],"type":"SCALAR"},{"bufferView":28,"componentType":5126,"count":40,"max":[4.21875,12.306249618530273,4.150000095367432],"min":[3.53125,6.306250095367432,3.4625000953674316],"type":"VEC3"},{"bufferView":29,"componentType":5126,"count":40,"max":[1,1,1],"min":[-1,-1,-1],"type":"VEC3"},{"bufferView":30,"componentType":5126,"count":40,"max":[0.3828125,1],"min":[0,0],"type":"VEC2"},{"bufferView":31,"componentType":5123,"count":60,"max":[39],"min":[0],"type":"SCALAR"},{"bufferView":32,"componentType":5126,"count":40,"max":[3.96875,11.774999618530273,4.931250095367432],"min":[3.28125,11.087499618530273,-5.068749904632568],"type":"VEC3"},{"bufferView":33,"componentType":5126,"count":40,"max":[1,1,1],"min":[-1,-1,-1],"type":"VEC3"},{"bufferView":34,"componentType":5126,"count":40,"max":[0.3828125,1],"min":[0,0],"type":"VEC2"},{"bufferView":35,"componentType":5123,"count":60,"max":[39],"min":[0],"type":"SCALAR"},{"bufferView":36,"componentType":5126,"count":40,"max":[4.21875,12.306249618530273,-3.5999999046325684],"min":[3.53125,6.306250095367432,-4.287499904632568],"type":"VEC3"},{"bufferView":37,"componentType":5126,"count":40,"max":[1,1,1],"min":[-1,-1,-1],"type":"VEC3"},{"bufferView":38,"componentType":5126,"count":40,"max":[0.3828125,1],"min":[0,0],"type":"VEC2"},{"bufferView":39,"componentType":5123,"count":60,"max":[39],"min":[0],"type":"SCALAR"},{"bufferView":40,"componentType":5126,"count":40,"max":[5.125,8.024999618530273,-3.4749999046325684],"min":[-4.875,7.337500095367432,-4.162499904632568],"type":"VEC3"},{"bufferView":41,"componentType":5126,"count":40,"max":[1,1,1],"min":[-1,-1,-1],"type":"VEC3"},{"bufferView":42,"componentType":5126,"count":40,"max":[0.3828125,1],"min":[0,0],"type":"VEC2"},{"bufferView":43,"componentType":5123,"count":60,"max":[39],"min":[0],"type":"SCALAR"},{"bufferView":44,"componentType":5126,"count":104,"max":[4.25,11.837499618530273,-3.4749999046325684],"min":[-5.375,6.275000095367432,-4.162499904632568],"type":"VEC3"},{"bufferView":45,"componentType":5126,"count":104,"max":[1,1,1],"min":[-1,-1,-1],"type":"VEC3"},{"bufferView":46,"componentType":5126,"count":104,"max":[0.3828125,1],"min":[0,0],"type":"VEC2"},{"bufferView":47,"componentType":5123,"count":156,"max":[103],"min":[0],"type":"SCALAR"},{"bufferView":48,"componentType":5126,"count":40,"max":[-3.28125,8.321874618530273,4.931250095367432],"min":[-3.96875,8.009374618530273,-5.068749904632568],"type":"VEC3"},{"bufferView":49,"componentType":5126,"count":40,"max":[1,1,1],"min":[-1,-1,-1],"type":"VEC3"},{"bufferView":50,"componentType":5126,"count":40,"max":[0.3828125,1],"min":[0,0],"type":"VEC2"},{"bufferView":51,"componentType":5123,"count":60,"max":[39],"min":[0],"type":"SCALAR"}],"materials":[{"pbrMetallicRoughness":{"metallicFactor":0,"roughnessFactor":1,"baseColorTexture":{"index":0}},"alphaMode":"MASK","alphaCutoff":0.05,"doubleSided":true},{"pbrMetallicRoughness":{"metallicFactor":0,"roughnessFactor":1,"baseColorTexture":{"index":1}},"alphaMode":"MASK","alphaCutoff":0.05,"doubleSided":true}],"textures":[{"sampler":0,"source":0,"name":"roof2.png"},{"sampler":1,"source":1,"name":"housesupportbeam.png"}],"samplers":[{"magFilter":9728,"minFilter":9728,"wrapS":33071,"wrapT":33071},{"magFilter":9728,"minFilter":9728,"wrapS":33071,"wrapT":33071}],"images":[{"mimeType":"image/png","uri":"data:image/png;base64,"},{"mimeType":"image/png","uri":"data:image/png;base64,"}],"meshes":[{"primitives":[{"mode":4,"attributes":{"POSITION":0,"NORMAL":1,"TEXCOORD_0":2},"indices":3,"material":0}]},{"primitives":[{"mode":4,"attributes":{"POSITION":4,"NORMAL":5,"TEXCOORD_0":6},"indices":7,"material":1}]},{"primitives":[{"mode":4,"attributes":{"POSITION":8,"NORMAL":9,"TEXCOORD_0":10},"indices":11,"material":1}]},{"primitives":[{"mode":4,"attributes":{"POSITION":12,"NORMAL":13,"TEXCOORD_0":14},"indices":15,"material":1}]},{"primitives":[{"mode":4,"attributes":{"POSITION":16,"NORMAL":17,"TEXCOORD_0":18},"indices":19,"material":1}]},{"primitives":[{"mode":4,"attributes":{"POSITION":20,"NORMAL":21,"TEXCOORD_0":22},"indices":23,"material":1}]},{"primitives":[{"mode":4,"attributes":{"POSITION":24,"NORMAL":25,"TEXCOORD_0":26},"indices":27,"material":1}]},{"primitives":[{"mode":4,"attributes":{"POSITION":28,"NORMAL":29,"TEXCOORD_0":30},"indices":31,"material":1}]},{"primitives":[{"mode":4,"attributes":{"POSITION":32,"NORMAL":33,"TEXCOORD_0":34},"indices":35,"material":1}]},{"primitives":[{"mode":4,"attributes":{"POSITION":36,"NORMAL":37,"TEXCOORD_0":38},"indices":39,"material":1}]},{"primitives":[{"mode":4,"attributes":{"POSITION":40,"NORMAL":41,"TEXCOORD_0":42},"indices":43,"material":1}]},{"primitives":[{"mode":4,"attributes":{"POSITION":44,"NORMAL":45,"TEXCOORD_0":46},"indices":47,"material":1}]},{"primitives":[{"mode":4,"attributes":{"POSITION":48,"NORMAL":49,"TEXCOORD_0":50},"indices":51,"material":1}]}]}