{"asset":{"version":"2.0","generator":"Blockbench 4.8.1 glTF exporter"},"scenes":[{"nodes":[11],"name":"blockbench_export"}],"scene":0,"nodes":[{"name":"housesupportbeams","mesh":0},{"name":"housesupportbeams","mesh":1},{"name":"housesupportbeams","mesh":2},{"name":"housesupportbeams","mesh":3},{"name":"housesupportbeams","mesh":4},{"name":"housesupportbeams","mesh":5},{"name":"housesupportbeams","mesh":6},{"name":"housesupportbeams","mesh":7},{"name":"housesupportbeams","mesh":8},{"name":"housesupportbeams","mesh":9},{"name":"housebody","mesh":10},{"children":[0,1,2,3,4,5,6,7,8,9,10]}],"bufferViews":[{"buffer":0,"byteOffset":0,"byteLength":480,"target":34962,"byteStride":12},{"buffer":0,"byteOffset":480,"byteLength":480,"target":34962,"byteStride":12},{"buffer":0,"byteOffset":960,"byteLength":320,"target":34962,"byteStride":8},{"buffer":0,"byteOffset":1280,"byteLength":120,"target":34963},{"buffer":0,"byteOffset":1400,"byteLength":480,"target":34962,"byteStride":12},{"buffer":0,"byteOffset":1880,"byteLength":480,"target":34962,"byteStride":12},{"buffer":0,"byteOffset":2360,"byteLength":320,"target":34962,"byteStride":8},{"buffer":0,"byteOffset":2680,"byteLength":120,"target":34963},{"buffer":0,"byteOffset":2800,"byteLength":480,"target":34962,"byteStride":12},{"buffer":0,"byteOffset":3280,"byteLength":480,"target":34962,"byteStride":12},{"buffer":0,"byteOffset":3760,"byteLength":320,"target":34962,"byteStride":8},{"buffer":0,"byteOffset":4080,"byteLength":120,"target":34963},{"buffer":0,"byteOffset":4200,"byteLength":480,"target":34962,"byteStride":12},{"buffer":0,"byteOffset":4680,"byteLength":480,"target":34962,"byteStride":12},{"buffer":0,"byteOffset":5160,"byteLength":320,"target":34962,"byteStride":8},{"buffer":0,"byteOffset":5480,"byteLength":120,"target":34963},{"buffer":0,"byteOffset":5600,"byteLength":480,"target":34962,"byteStride":12},{"buffer":0,"byteOffset":6080,"byteLength":480,"target":34962,"byteStride":12},{"buffer":0,"byteOffset":6560,"byteLength":320,"target":34962,"byteStride":8},{"buffer":0,"byteOffset":6880,"byteLength":120,"target":34963},{"buffer":0,"byteOffset":7000,"byteLength":480,"target":34962,"byteStride":12},{"buffer":0,"byteOffset":7480,"byteLength":480,"target":34962,"byteStride":12},{"buffer":0,"byteOffset":7960,"byteLength":320,"target":34962,"byteStride":8},{"buffer":0,"byteOffset":8280,"byteLength":120,"target":34963},{"buffer":0,"byteOffset":8400,"byteLength":480,"target":34962,"byteStride":12},{"buffer":0,"byteOffset":8880,"byteLength":480,"target":34962,"byteStride":12},{"buffer":0,"byteOffset":9360,"byteLength":320,"target":34962,"byteStride":8},{"buffer":0,"byteOffset":9680,"byteLength":120,"target":34963},{"buffer":0,"byteOffset":9800,"byteLength":480,"target":34962,"byteStride":12},{"buffer":0,"byteOffset":10280,"byteLength":480,"target":34962,"byteStride":12},{"buffer":0,"byteOffset":10760,"byteLength":320,"target":34962,"byteStride":8},{"buffer":0,"byteOffset":11080,"byteLength":120,"target":34963},{"buffer":0,"byteOffset":11200,"byteLength":480,"target":34962,"byteStride":12},{"buffer":0,"byteOffset":11680,"byteLength":480,"target":34962,"byteStride":12},{"buffer":0,"byteOffset":12160,"byteLength":320,"target":34962,"byteStride":8},{"buffer":0,"byteOffset":12480,"byteLength":120,"target":34963},{"buffer":0,"byteOffset":12600,"byteLength":480,"target":34962,"byteStride":12},{"buffer":0,"byteOffset":13080,"byteLength":480,"target":34962,"byteStride":12},{"buffer":0,"byteOffset":13560,"byteLength":320,"target":34962,"byteStride":8},{"buffer":0,"byteOffset":13880,"byteLength":120,"target":34963},{"buffer":0,"byteOffset":14000,"byteLength":480,"target":34962,"byteStride":12},{"buffer":0,"byteOffset":14480,"byteLength":480,"target":34962,"byteStride":12},{"buffer":0,"byteOffset":14960,"byteLength":320,"target":34962,"byteStride":8},{"buffer":0,"byteOffset":15280,"byteLength":120,"target":34963}],"buffers":[{"byteLength":15400,"uri":"data:application/octet-stream;base64,"}],"accessors":[{"bufferView":0,"componentType":5126,"count":40,"max":[4.9375,7.96875,4.15625],"min":[-5.0625,7.28125,3.46875],"type":"VEC3"},{"bufferView":1,"componentType":5126,"count":40,"max":[1,1,1],"min":[-1,-1,-1],"type":"VEC3"},{"bufferView":2,"componentType":5126,"count":40,"max":[0.3828125,1],"min":[0,0],"type":"VEC2"},{"bufferView":3,"componentType":5123,"count":60,"max":[39],"min":[0],"type":"SCALAR"},{"bufferView":4,"componentType":5126,"count":40,"max":[4.9375,7.96875,-3.34375],"min":[-5.0625,7.28125,-4.03125],"type":"VEC3"},{"bufferView":5,"componentType":5126,"count":40,"max":[1,1,1],"min":[-1,-1,-1],"type":"VEC3"},{"bufferView":6,"componentType":5126,"count":40,"max":[0.3828125,1],"min":[0,0],"type":"VEC2"},{"bufferView":7,"componentType":5123,"count":60,"max":[39],"min":[0],"type":"SCALAR"},{"bufferView":8,"componentType":5126,"count":40,"max":[4.03125,7.96875,5.0625],"min":[3.34375,7.28125,-4.9375],"type":"VEC3"},{"bufferView":9,"componentType":5126,"count":40,"max":[1,1,1],"min":[-1,-1,-1],"type":"VEC3"},{"bufferView":10,"componentType":5126,"count":40,"max":[0.3828125,1],"min":[0,0],"type":"VEC2"},{"bufferView":11,"componentType":5123,"count":60,"max":[39],"min":[0],"type":"SCALAR"},{"bufferView":12,"componentType":5126,"count":40,"max":[1.34375,7.96875,5.0625],"min":[0.65625,7.28125,-4.9375],"type":"VEC3"},{"bufferView":13,"componentType":5126,"count":40,"max":[1,1,1],"min":[-1,-1,-1],"type":"VEC3"},{"bufferView":14,"componentType":5126,"count":40,"max":[0.3828125,1],"min":[0,0],"type":"VEC2"},{"bufferView":15,"componentType":5123,"count":60,"max":[39],"min":[0],"type":"SCALAR"},{"bufferView":16,"componentType":5126,"count":40,"max":[-1.09375,7.96875,5.0625],"min":[-1.78125,7.28125,-4.9375],"type":"VEC3"},{"bufferView":17,"componentType":5126,"count":40,"max":[1,1,1],"min":[-1,-1,-1],"type":"VEC3"},{"bufferView":18,"componentType":5126,"count":40,"max":[0.3828125,1],"min":[0,0],"type":"VEC2"},{"bufferView":19,"componentType":5123,"count":60,"max":[39],"min":[0],"type":"SCALAR"},{"bufferView":20,"componentType":5126,"count":40,"max":[-3.46875,7.96875,5.0625],"min":[-4.15625,7.28125,-4.9375],"type":"VEC3"},{"bufferView":21,"componentType":5126,"count":40,"max":[1,1,1],"min":[-1,-1,-1],"type":"VEC3"},{"bufferView":22,"componentType":5126,"count":40,"max":[0.3828125,1],"min":[0,0],"type":"VEC2"},{"bufferView":23,"componentType":5123,"count":60,"max":[39],"min":[0],"type":"SCALAR"},{"bufferView":24,"componentType":5126,"count":40,"max":[-3.59375,8,4.28125],"min":[-4.28125,0,3.59375],"type":"VEC3"},{"bufferView":25,"componentType":5126,"count":40,"max":[1,1,1],"min":[-1,-1,-1],"type":"VEC3"},{"bufferView":26,"componentType":5126,"count":40,"max":[0.3828125,1],"min":[0,0],"type":"VEC2"},{"bufferView":27,"componentType":5123,"count":60,"max":[39],"min":[0],"type":"SCALAR"},{"bufferView":28,"componentType":5126,"count":40,"max":[4.15625,8,-3.46875],"min":[3.46875,0,-4.15625],"type":"VEC3"},{"bufferView":29,"componentType":5126,"count":40,"max":[1,1,1],"min":[-1,-1,-1],"type":"VEC3"},{"bufferView":30,"componentType":5126,"count":40,"max":[0.3828125,1],"min":[0,0],"type":"VEC2"},{"bufferView":31,"componentType":5123,"count":60,"max":[39],"min":[0],"type":"SCALAR"},{"bufferView":32,"componentType":5126,"count":40,"max":[4.15625,8,4.28125],"min":[3.46875,0,3.59375],"type":"VEC3"},{"bufferView":33,"componentType":5126,"count":40,"max":[1,1,1],"min":[-1,-1,-1],"type":"VEC3"},{"bufferView":34,"componentType":5126,"count":40,"max":[0.3828125,1],"min":[0,0],"type":"VEC2"},{"bufferView":35,"componentType":5123,"count":60,"max":[39],"min":[0],"type":"SCALAR"},{"bufferView":36,"componentType":5126,"count":40,"max":[-3.59375,8,-3.46875],"min":[-4.28125,0,-4.15625],"type":"VEC3"},{"bufferView":37,"componentType":5126,"count":40,"max":[1,1,1],"min":[-1,-1,-1],"type":"VEC3"},{"bufferView":38,"componentType":5126,"count":40,"max":[0.3828125,1],"min":[0,0],"type":"VEC2"},{"bufferView":39,"componentType":5123,"count":60,"max":[39],"min":[0],"type":"SCALAR"},{"bufferView":40,"componentType":5126,"count":40,"max":[3.9375,8,4.0625],"min":[-4.0625,0,-3.9375],"type":"VEC3"},{"bufferView":41,"componentType":5126,"count":40,"max":[1,1,1],"min":[-1,-1,-1],"type":"VEC3"},{"bufferView":42,"componentType":5126,"count":40,"max":[0.75390625,0.75390625],"min":[0,0],"type":"VEC2"},{"bufferView":43,"componentType":5123,"count":60,"max":[39],"min":[0],"type":"SCALAR"}],"materials":[{"pbrMetallicRoughness":{"metallicFactor":0,"roughnessFactor":1,"baseColorTexture":{"index":0}},"alphaMode":"MASK","alphaCutoff":0.05,"doubleSided":true},{"pbrMetallicRoughness":{"metallicFactor":0,"roughnessFactor":1,"baseColorTexture":{"index":1}},"alphaMode":"MASK","alphaCutoff":0.05,"doubleSided":true}],"textures":[{"sampler":0,"source":0,"name":"housesupportbeam.png"},{"sampler":1,"source":1,"name":"OldTownHouse2BodyTexture.png"}],"samplers":[{"magFilter":9728,"minFilter":9728,"wrapS":33071,"wrapT":33071},{"magFilter":9728,"minFilter":9728,"wrapS":33071,"wrapT":33071}],"images":[{"mimeType":"image/png","uri":"data:image/png;base64,"},{"mimeType":"image/png","uri":"data:image/png;base64,"}],"meshes":[{"primitives":[{"mode":4,"attributes":{"POSITION":0,"NORMAL":1,"TEXCOORD_0":2},"indices":3,"material":0}]},{"primitives":[{"mode":4,"attributes":{"POSITION":4,"NORMAL":5,"TEXCOORD_0":6},"indices":7,"material":0}]},{"primitives":[{"mode":4,"attributes":{"POSITION":8,"NORMAL":9,"TEXCOORD_0":10},"indices":11,"material":0}]},{"primitives":[{"mode":4,"attributes":{"POSITION":12,"NORMAL":13,"TEXCOORD_0":14},"indices":15,"material":0}]},{"primitives":[{"mode":4,"attributes":{"POSITION":16,"NORMAL":17,"TEXCOORD_0":18},"indices":19,"material":0}]},{"primitives":[{"mode":4,"attributes":{"POSITION":20,"NORMAL":21,"TEXCOORD_0":22},"indices":23,"material":0}]},{"primitives":[{"mode":4,"attributes":{"POSITION":24,"NORMAL":25,"TEXCOORD_0":26},"indices":27,"material":0}]},{"primitives":[{"mode":4,"attributes":{"POSITION":28,"NORMAL":29,"TEXCOORD_0":30},"indices":31,"material":0}]},{"primitives":[{"mode":4,"attributes":{"POSITION":32,"NORMAL":33,"TEXCOORD_0":34},"indices":35,"material":0}]},{"primitives":[{"mode":4,"attributes":{"POSITION":36,"NORMAL":37,"TEXCOORD_0":38},"indices":39,"material":0}]},{"primitives":[{"mode":4,"attributes":{"POSITION":40,"NORMAL":41,"TEXCOORD_0":42},"indices":43,"material":1}]}]}