{"asset":{"version":"2.0","generator":"Blockbench 4.8.1 glTF exporter"},"scenes":[{"nodes":[6],"name":"blockbench_export"}],"scene":0,"nodes":[{"name":"housesupportbeams","mesh":0},{"name":"housesupportbeams","mesh":1},{"name":"housesupportbeams","mesh":2},{"name":"housesupportbeams","mesh":3},{"name":"housesupportbeams","mesh":4},{"name":"roof","mesh":5},{"children":[0,1,2,3,4,5]}],"bufferViews":[{"buffer":0,"byteOffset":0,"byteLength":864,"target":34962,"byteStride":12},{"buffer":0,"byteOffset":864,"byteLength":864,"target":34962,"byteStride":12},{"buffer":0,"byteOffset":1728,"byteLength":576,"target":34962,"byteStride":8},{"buffer":0,"byteOffset":2304,"byteLength":216,"target":34963},{"buffer":0,"byteOffset":2520,"byteLength":2208,"target":34962,"byteStride":12},{"buffer":0,"byteOffset":4728,"byteLength":2208,"target":34962,"byteStride":12},{"buffer":0,"byteOffset":6936,"byteLength":1472,"target":34962,"byteStride":8},{"buffer":0,"byteOffset":8408,"byteLength":552,"target":34963},{"buffer":0,"byteOffset":8960,"byteLength":864,"target":34962,"byteStride":12},{"buffer":0,"byteOffset":9824,"byteLength":864,"target":34962,"byteStride":12},{"buffer":0,"byteOffset":10688,"byteLength":576,"target":34962,"byteStride":8},{"buffer":0,"byteOffset":11264,"byteLength":216,"target":34963},{"buffer":0,"byteOffset":11480,"byteLength":864,"target":34962,"byteStride":12},{"buffer":0,"byteOffset":12344,"byteLength":864,"target":34962,"byteStride":12},{"buffer":0,"byteOffset":13208,"byteLength":576,"target":34962,"byteStride":8},{"buffer":0,"byteOffset":13784,"byteLength":216,"target":34963},{"buffer":0,"byteOffset":14000,"byteLength":864,"target":34962,"byteStride":12},{"buffer":0,"byteOffset":14864,"byteLength":864,"target":34962,"byteStride":12},{"buffer":0,"byteOffset":15728,"byteLength":576,"target":34962,"byteStride":8},{"buffer":0,"byteOffset":16304,"byteLength":216,"target":34963},{"buffer":0,"byteOffset":16520,"byteLength":480,"target":34962,"byteStride":12},{"buffer":0,"byteOffset":17000,"byteLength":480,"target":34962,"byteStride":12},{"buffer":0,"byteOffset":17480,"byteLength":320,"target":34962,"byteStride":8},{"buffer":0,"byteOffset":17800,"byteLength":120,"target":34963}],"buffers":[{"byteLength":17920,"uri":"data:application/octet-stream;base64,"}],"accessors":[{"bufferView":0,"componentType":5126,"count":72,"max":[4.462500095367432,12.118749618530273,4.46875],"min":[3.7750000953674316,7.931250095367432,0.21875],"type":"VEC3"},{"bufferView":1,"componentType":5126,"count":72,"max":[0.9933198094367981,0.8703494668006897,0.8814799785614014],"min":[-0.992236852645874,-1,-0.9701424837112427],"type":"VEC3"},{"bufferView":2,"componentType":5126,"count":72,"max":[0.3828125,1],"min":[0,0],"type":"VEC2"},{"bufferView":3,"componentType":5123,"count":108,"max":[71],"min":[0],"type":"SCALAR"},{"bufferView":4,"componentType":5126,"count":184,"max":[5.493750095367432,12.649999618530273,0.28125],"min":[-5.443749904632568,11.712499618530273,-0.40625],"type":"VEC3"},{"bufferView":5,"componentType":5126,"count":184,"max":[1,1,1],"min":[-1,-1,-1],"type":"VEC3"},{"bufferView":6,"componentType":5126,"count":184,"max":[0.3828125,1],"min":[0,0],"type":"VEC2"},{"bufferView":7,"componentType":5123,"count":276,"max":[183],"min":[0],"type":"SCALAR"},{"bufferView":8,"componentType":5126,"count":72,"max":[-3.7874999046325684,12.118749618530273,-0.28125],"min":[-4.474999904632568,7.931250095367432,-4.40625],"type":"VEC3"},{"bufferView":9,"componentType":5126,"count":72,"max":[0.9933198094367981,0.85207599401474,0.9701424837112427],"min":[-0.9931924939155579,-1,-0.8814799785614014],"type":"VEC3"},{"bufferView":10,"componentType":5126,"count":72,"max":[0.3828125,1],"min":[0,0],"type":"VEC2"},{"bufferView":11,"componentType":5123,"count":108,"max":[71],"min":[0],"type":"SCALAR"},{"bufferView":12,"componentType":5126,"count":72,"max":[-3.7874999046325684,12.118749618530273,4.46875],"min":[-4.474999904632568,7.931250095367432,0.21875],"type":"VEC3"},{"bufferView":13,"componentType":5126,"count":72,"max":[0.9933198094367981,0.8703494668006897,0.8814799785614014],"min":[-0.992236852645874,-1,-0.9701424837112427],"type":"VEC3"},{"bufferView":14,"componentType":5126,"count":72,"max":[0.3828125,1],"min":[0,0],"type":"VEC2"},{"bufferView":15,"componentType":5123,"count":108,"max":[71],"min":[0],"type":"SCALAR"},{"bufferView":16,"componentType":5126,"count":72,"max":[4.462500095367432,12.243749618530273,-0.15625],"min":[3.7750000953674316,7.931250095367432,-4.40625],"type":"VEC3"},{"bufferView":17,"componentType":5126,"count":72,"max":[0.9933198094367981,0.8505035638809204,0.9486833214759827],"min":[-0.9930822849273682,-1,-0.8814799785614014],"type":"VEC3"},{"bufferView":18,"componentType":5126,"count":72,"max":[0.3828125,1],"min":[0,0],"type":"VEC2"},{"bufferView":19,"componentType":5123,"count":108,"max":[71],"min":[0],"type":"SCALAR"},{"bufferView":20,"componentType":5126,"count":40,"max":[4.275000095367432,11.868749618530273,4.28125],"min":[-4.162499904632568,7.868750095367432,-4.15625],"type":"VEC3"},{"bufferView":21,"componentType":5126,"count":40,"max":[1,1,0.8944271802902222],"min":[-1,-1,-0.9037378430366516],"type":"VEC3"},{"bufferView":22,"componentType":5126,"count":40,"max":[0.529296875,0.529296875],"min":[0,0],"type":"VEC2"},{"bufferView":23,"componentType":5123,"count":60,"max":[39],"min":[0],"type":"SCALAR"}],"materials":[{"pbrMetallicRoughness":{"metallicFactor":0,"roughnessFactor":1,"baseColorTexture":{"index":0}},"alphaMode":"MASK","alphaCutoff":0.05,"doubleSided":true},{"pbrMetallicRoughness":{"metallicFactor":0,"roughnessFactor":1,"baseColorTexture":{"index":1}},"alphaMode":"MASK","alphaCutoff":0.05,"doubleSided":true}],"textures":[{"sampler":0,"source":0,"name":"housesupportbeam.png"},{"sampler":1,"source":1,"name":"roof.png"}],"samplers":[{"magFilter":9728,"minFilter":9728,"wrapS":33071,"wrapT":33071},{"magFilter":9728,"minFilter":9728,"wrapS":33071,"wrapT":33071}],"images":[{"mimeType":"image/png","uri":"data:image/png;base64,"},{"mimeType":"image/png","uri":"data:image/png;base64,"}],"meshes":[{"primitives":[{"mode":4,"attributes":{"POSITION":0,"NORMAL":1,"TEXCOORD_0":2},"indices":3,"material":0}]},{"primitives":[{"mode":4,"attributes":{"POSITION":4,"NORMAL":5,"TEXCOORD_0":6},"indices":7,"material":0}]},{"primitives":[{"mode":4,"attributes":{"POSITION":8,"NORMAL":9,"TEXCOORD_0":10},"indices":11,"material":0}]},{"primitives":[{"mode":4,"attributes":{"POSITION":12,"NORMAL":13,"TEXCOORD_0":14},"indices":15,"material":0}]},{"primitives":[{"mode":4,"attributes":{"POSITION":16,"NORMAL":17,"TEXCOORD_0":18},"indices":19,"material":0}]},{"primitives":[{"mode":4,"attributes":{"POSITION":20,"NORMAL":21,"TEXCOORD_0":22},"indices":23,"material":1}]}]}