{"asset":{"version":"2.0","generator":"THREE.GLTFExporter"},"scenes":[{"name":"default","nodes":[0]}],"scene":0,"nodes":[{"mesh":0}],"bufferViews":[{"buffer":0,"byteOffset":0,"byteLength":18720,"target":34962,"byteStride":12},{"buffer":0,"byteOffset":18720,"byteLength":18720,"target":34962,"byteStride":12},{"buffer":0,"byteOffset":37440,"byteLength":12480,"target":34962,"byteStride":8},{"buffer":0,"byteOffset":49920,"byteLength":12480,"target":34962,"byteStride":8},{"buffer":0,"byteOffset":62400,"byteLength":3120,"target":34963}],"buffers":[{"byteLength":65520,"uri":"data:application/octet-stream;base64,"}],"accessors":[{"bufferView":0,"componentType":5126,"count":1560,"max":[22,1,1],"min":[-9,-0.5,-16],"type":"VEC3"},{"bufferView":1,"componentType":5126,"count":1560,"max":[0.7071067690849304,1,0.7071067690849304],"min":[-0.4472135901451111,0.5773502588272095,-0.5773502588272095],"type":"VEC3"},{"bufferView":2,"componentType":5126,"count":1560,"max":[1,0.5],"min":[0.0625,0],"type":"VEC2"},{"bufferView":3,"componentType":5126,"count":1560,"max":[-1,0],"min":[-1,0],"type":"VEC2"},{"bufferView":4,"componentType":5123,"count":1560,"max":[1559],"min":[0],"type":"SCALAR"}],"materials":[{"pbrMetallicRoughness":{"metallicFactor":0,"roughnessFactor":1,"baseColorTexture":{"index":0}},"alphaMode":"MASK","alphaCutoff":0.01,"name":"texture_1"}],"textures":[{"sampler":0,"source":0,"name":"texture_1"}],"samplers":[{"magFilter":9728,"minFilter":9728,"wrapS":33071,"wrapT":33071}],"images":[{"mimeType":"image/png","uri":"data:image/png;base64,"}],"meshes":[{"primitives":[{"mode":4,"attributes":{"POSITION":0,"NORMAL":1,"TEXCOORD_0":2,"_UVANIMATION":3},"indices":4,"material":0}]}]}