{"asset":{"version":"2.0","generator":"THREE.GLTFExporter"},"scenes":[{"name":"default","nodes":[0]}],"scene":0,"nodes":[{"name":"Four Way Intersection","extras":{"data":{"name":"Four Way Intersection","points":[{"name":"Origin","pos":{"x":0,"y":0,"z":0}}],"billboard":{"enabled":false,"y":false},"directional":{"enabled":false,"mode":"cameraAngle","angles":[]},"custom":[],"instances":[{"name":"Four Way Intersection","uuid":"BF0C0A73-D0B3-48F6-AB4A-19CC17EABB33","parent":null,"pos":{"x":-19,"y":0,"z":10},"rot":{"x":0,"y":0,"z":0,"order":"XYZ"},"sca":{"x":1,"y":1,"z":1},"custom":[]}]}},"mesh":0}],"bufferViews":[{"buffer":0,"byteOffset":0,"byteLength":5184,"target":34962,"byteStride":12},{"buffer":0,"byteOffset":5184,"byteLength":5184,"target":34962,"byteStride":12},{"buffer":0,"byteOffset":10368,"byteLength":3456,"target":34962,"byteStride":8},{"buffer":0,"byteOffset":13824,"byteLength":3456,"target":34962,"byteStride":8},{"buffer":0,"byteOffset":17280,"byteLength":864,"target":34963}],"buffers":[{"byteLength":18144,"uri":"data:application/octet-stream;base64,"}],"accessors":[{"bufferView":0,"componentType":5126,"count":432,"max":[10,0,7],"min":[2,-0.25,-1],"type":"VEC3"},{"bufferView":1,"componentType":5126,"count":432,"max":[1,1,1],"min":[-1,0,-1],"type":"VEC3"},{"bufferView":2,"componentType":5126,"count":432,"max":[0.1875,0.3125],"min":[0.0625,0.0625],"type":"VEC2"},{"bufferView":3,"componentType":5126,"count":432,"max":[-1,0],"min":[-1,0],"type":"VEC2"},{"bufferView":4,"componentType":5123,"count":432,"max":[431],"min":[0],"type":"SCALAR"}],"materials":[{"pbrMetallicRoughness":{"metallicFactor":0,"roughnessFactor":1,"baseColorTexture":{"index":0}},"alphaMode":"MASK","alphaCutoff":0.01,"name":"texture_1"}],"textures":[{"sampler":0,"source":0,"name":"texture_1"}],"samplers":[{"magFilter":9728,"minFilter":9728,"wrapS":33071,"wrapT":33071}],"images":[{"mimeType":"image/png","uri":"data:image/png;base64,"}],"meshes":[{"primitives":[{"mode":4,"attributes":{"POSITION":0,"NORMAL":1,"TEXCOORD_0":2,"_UVANIMATION":3},"indices":4,"material":0}]}]}