{"asset":{"version":"2.0","generator":"THREE.GLTFExporter"},"scenes":[{"name":"default","nodes":[0]}],"scene":0,"nodes":[{"mesh":0}],"bufferViews":[{"buffer":0,"byteOffset":0,"byteLength":94248,"target":34962,"byteStride":12},{"buffer":0,"byteOffset":94248,"byteLength":94248,"target":34962,"byteStride":12},{"buffer":0,"byteOffset":188496,"byteLength":62832,"target":34962,"byteStride":8},{"buffer":0,"byteOffset":251328,"byteLength":62832,"target":34962,"byteStride":8},{"buffer":0,"byteOffset":314160,"byteLength":108,"target":34963},{"buffer":0,"byteOffset":314268,"byteLength":15600,"target":34963}],"buffers":[{"byteLength":329868,"uri":"data:application/octet-stream;base64,"}],"accessors":[{"bufferView":0,"componentType":5126,"count":7854,"max":[8.25,12,8],"min":[-8.25,-1.1102230246251565e-16,-8.25],"type":"VEC3"},{"bufferView":1,"componentType":5126,"count":7854,"max":[1,1,1],"min":[-1,-1,-1],"type":"VEC3"},{"bufferView":2,"componentType":5126,"count":7854,"max":[1,0.5],"min":[0.125,-0.00390625],"type":"VEC2"},{"bufferView":3,"componentType":5126,"count":7854,"max":[-1,0],"min":[-1,0],"type":"VEC2"},{"bufferView":4,"componentType":5123,"count":54,"max":[53],"min":[0],"type":"SCALAR"},{"bufferView":5,"componentType":5123,"count":7800,"max":[7853],"min":[54],"type":"SCALAR"}],"materials":[{"pbrMetallicRoughness":{"metallicFactor":0,"roughnessFactor":1,"baseColorTexture":{"index":0}},"alphaMode":"MASK","alphaCutoff":0.01,"name":"texture_1"},{"pbrMetallicRoughness":{"metallicFactor":0,"roughnessFactor":1,"baseColorTexture":{"index":1}},"alphaMode":"MASK","alphaCutoff":0.01,"name":"texture_2"}],"textures":[{"sampler":0,"source":0,"name":"texture_1"},{"sampler":1,"source":1,"name":"texture_2"}],"samplers":[{"magFilter":9728,"minFilter":9728,"wrapS":33071,"wrapT":33071},{"magFilter":9728,"minFilter":9728,"wrapS":33071,"wrapT":33071}],"images":[{"mimeType":"image/png","uri":"data:image/png;base64,"},{"mimeType":"image/png","uri":"data:image/png;base64,"}],"meshes":[{"primitives":[{"mode":4,"attributes":{"POSITION":0,"NORMAL":1,"TEXCOORD_0":2,"_UVANIMATION":3},"indices":4,"material":0},{"mode":4,"attributes":{"POSITION":0,"NORMAL":1,"TEXCOORD_0":2,"_UVANIMATION":3},"indices":5,"material":1}]}]}