{"asset":{"version":"2.0","generator":"THREE.GLTFExporter"},"scenes":[{"name":"default","nodes":[0]}],"scene":0,"nodes":[{"mesh":0}],"bufferViews":[{"buffer":0,"byteOffset":0,"byteLength":26784,"target":34962,"byteStride":12},{"buffer":0,"byteOffset":26784,"byteLength":26784,"target":34962,"byteStride":12},{"buffer":0,"byteOffset":53568,"byteLength":17856,"target":34962,"byteStride":8},{"buffer":0,"byteOffset":71424,"byteLength":17856,"target":34962,"byteStride":8},{"buffer":0,"byteOffset":89280,"byteLength":4464,"target":34963}],"buffers":[{"byteLength":93744,"uri":"data:application/octet-stream;base64,"}],"accessors":[{"bufferView":0,"componentType":5126,"count":2232,"max":[4,1,16],"min":[-4,-1.0015848875045776,-0.0015506744384765625],"type":"VEC3"},{"bufferView":1,"componentType":5126,"count":2232,"max":[1,1,1],"min":[-1,-1,-1],"type":"VEC3"},{"bufferView":2,"componentType":5126,"count":2232,"max":[1,0.5],"min":[0,0],"type":"VEC2"},{"bufferView":3,"componentType":5126,"count":2232,"max":[-1,0],"min":[-1,0],"type":"VEC2"},{"bufferView":4,"componentType":5123,"count":2232,"max":[2231],"min":[0],"type":"SCALAR"}],"materials":[{"pbrMetallicRoughness":{"metallicFactor":0,"roughnessFactor":1,"baseColorTexture":{"index":0}},"alphaMode":"MASK","alphaCutoff":0.01,"name":"texture_1"}],"textures":[{"sampler":0,"source":0,"name":"texture_1"}],"samplers":[{"magFilter":9728,"minFilter":9728,"wrapS":33071,"wrapT":33071}],"images":[{"mimeType":"image/png","uri":"data:image/png;base64,"}],"meshes":[{"primitives":[{"mode":4,"attributes":{"POSITION":0,"NORMAL":1,"TEXCOORD_0":2,"_UVANIMATION":3},"indices":4,"material":0}]}]}