{"asset":{"version":"2.0","generator":"THREE.GLTFExporter"},"scenes":[{"name":"default","nodes":[0]}],"scene":0,"nodes":[{"mesh":0}],"bufferViews":[{"buffer":0,"byteOffset":0,"byteLength":7200,"target":34962,"byteStride":12},{"buffer":0,"byteOffset":7200,"byteLength":7200,"target":34962,"byteStride":12},{"buffer":0,"byteOffset":14400,"byteLength":4800,"target":34962,"byteStride":8},{"buffer":0,"byteOffset":19200,"byteLength":4800,"target":34962,"byteStride":8},{"buffer":0,"byteOffset":24000,"byteLength":1200,"target":34963}],"buffers":[{"byteLength":25200,"uri":"data:application/octet-stream;base64,"}],"accessors":[{"bufferView":0,"componentType":5126,"count":600,"max":[-5,1,16],"min":[-13,-1,11],"type":"VEC3"},{"bufferView":1,"componentType":5126,"count":600,"max":[1,1,1],"min":[-1,-1,-1],"type":"VEC3"},{"bufferView":2,"componentType":5126,"count":600,"max":[1,1],"min":[0,0.5],"type":"VEC2"},{"bufferView":3,"componentType":5126,"count":600,"max":[-1,0],"min":[-1,0],"type":"VEC2"},{"bufferView":4,"componentType":5123,"count":600,"max":[599],"min":[0],"type":"SCALAR"}],"materials":[{"pbrMetallicRoughness":{"metallicFactor":0,"roughnessFactor":1,"baseColorTexture":{"index":0}},"alphaMode":"MASK","alphaCutoff":0.01,"name":"texture_1"}],"textures":[{"sampler":0,"source":0,"name":"texture_1"}],"samplers":[{"magFilter":9728,"minFilter":9728,"wrapS":33071,"wrapT":33071}],"images":[{"mimeType":"image/png","uri":"data:image/png;base64,"}],"meshes":[{"primitives":[{"mode":4,"attributes":{"POSITION":0,"NORMAL":1,"TEXCOORD_0":2,"_UVANIMATION":3},"indices":4,"material":0}]}]}