{"asset":{"version":"2.0","generator":"THREE.GLTFExporter"},"scenes":[{"name":"default","nodes":[0]}],"scene":0,"nodes":[{"matrix":[1,0,0,0,0,1,0,0,0,0,1,0,0.5,0.5,-0.5,1],"name":"Scaled Chair","extras":{"data":{"name":"Scaled Chair","points":[{"name":"Origin","pos":{"x":0,"y":0,"z":0}}],"billboard":{"enabled":false,"y":false},"custom":[],"instance":{"name":"Scaled Chair","uuid":"0DC027D6-ACD8-4B85-8B56-D7E89BE70008","parent":null,"pos":{"x":0.5,"y":0.5,"z":-0.5},"rot":{"x":0,"y":0,"z":0,"order":"XYZ"},"sca":{"x":1,"y":1,"z":1},"custom":[]}}},"mesh":0}],"bufferViews":[{"buffer":0,"byteOffset":0,"byteLength":792,"target":34962,"byteStride":12},{"buffer":0,"byteOffset":792,"byteLength":792,"target":34962,"byteStride":12},{"buffer":0,"byteOffset":1584,"byteLength":528,"target":34962,"byteStride":8},{"buffer":0,"byteOffset":2112,"byteLength":528,"target":34962,"byteStride":8},{"buffer":0,"byteOffset":2640,"byteLength":132,"target":34963}],"buffers":[{"byteLength":2772,"uri":"data:application/octet-stream;base64,"}],"accessors":[{"bufferView":0,"componentType":5126,"count":66,"max":[2.220446049250313e-16,1.5,1],"min":[-1,-0.5,0],"type":"VEC3"},{"bufferView":1,"componentType":5126,"count":66,"max":[1,1,1],"min":[-1,-1.1594432969275204e-8,-1],"type":"VEC3"},{"bufferView":2,"componentType":5126,"count":66,"max":[0.25,1],"min":[0,0.1666666865348816],"type":"VEC2"},{"bufferView":3,"componentType":5126,"count":66,"max":[-1,0],"min":[-1,0],"type":"VEC2"},{"bufferView":4,"componentType":5123,"count":66,"max":[65],"min":[0],"type":"SCALAR"}],"materials":[{"pbrMetallicRoughness":{"metallicFactor":0,"roughnessFactor":1,"baseColorTexture":{"index":0}},"alphaMode":"MASK","alphaCutoff":0.01,"name":"texture_1"}],"textures":[{"sampler":0,"source":0,"name":"texture_1"}],"samplers":[{"magFilter":9728,"minFilter":9728,"wrapS":33071,"wrapT":33071}],"images":[{"mimeType":"image/png","uri":"data:image/png;base64,"}],"meshes":[{"primitives":[{"mode":4,"attributes":{"POSITION":0,"NORMAL":1,"TEXCOORD_0":2,"_UVANIMATION":3},"indices":4,"material":0}]}]}