{"asset":{"version":"2.0","generator":"THREE.GLTFExporter"},"scenes":[{"name":"default","nodes":[0]}],"scene":0,"nodes":[{"name":"Street Piece Large","extras":{"data":{"name":"Street Piece Large","points":[{"name":"Origin","pos":{"x":0,"y":0,"z":0}}],"billboard":{"enabled":false,"y":false},"directional":{"enabled":false,"mode":"cameraAngle","angles":[]},"custom":[],"instances":[{"name":"Street Piece Large","uuid":"D2F79FE0-2F15-423C-A629-6B5626CEAA21","parent":null,"pos":{"x":15.5,"y":-0.25,"z":15.75},"rot":{"x":0,"y":0,"z":0,"order":"XYZ"},"sca":{"x":1,"y":1,"z":1},"custom":[]}]}},"mesh":0}],"bufferViews":[{"buffer":0,"byteOffset":0,"byteLength":44928,"target":34962,"byteStride":12},{"buffer":0,"byteOffset":44928,"byteLength":44928,"target":34962,"byteStride":12},{"buffer":0,"byteOffset":89856,"byteLength":29952,"target":34962,"byteStride":8},{"buffer":0,"byteOffset":119808,"byteLength":29952,"target":34962,"byteStride":8},{"buffer":0,"byteOffset":149760,"byteLength":7488,"target":34963}],"buffers":[{"byteLength":157248,"uri":"data:application/octet-stream;base64,"}],"accessors":[{"bufferView":0,"componentType":5126,"count":3744,"max":[9.5,0.25,8],"min":[-14.5,0,-16],"type":"VEC3"},{"bufferView":1,"componentType":5126,"count":3744,"max":[0,1,1],"min":[0,0,-1],"type":"VEC3"},{"bufferView":2,"componentType":5126,"count":3744,"max":[0.1875,0.3125],"min":[0.0625,0.0625],"type":"VEC2"},{"bufferView":3,"componentType":5126,"count":3744,"max":[-1,0],"min":[-1,0],"type":"VEC2"},{"bufferView":4,"componentType":5123,"count":3744,"max":[3743],"min":[0],"type":"SCALAR"}],"materials":[{"pbrMetallicRoughness":{"metallicFactor":0,"roughnessFactor":1,"baseColorTexture":{"index":0}},"alphaMode":"MASK","alphaCutoff":0.01,"name":"texture_1"}],"textures":[{"sampler":0,"source":0,"name":"texture_1"}],"samplers":[{"magFilter":9728,"minFilter":9728,"wrapS":33071,"wrapT":33071}],"images":[{"mimeType":"image/png","uri":"data:image/png;base64,"}],"meshes":[{"primitives":[{"mode":4,"attributes":{"POSITION":0,"NORMAL":1,"TEXCOORD_0":2,"_UVANIMATION":3},"indices":4,"material":0}]}]}