{"asset":{"version":"2.0","generator":"THREE.GLTFExporter"},"scenes":[{"name":"default","nodes":[0]}],"scene":0,"nodes":[{"mesh":0}],"bufferViews":[{"buffer":0,"byteOffset":0,"byteLength":223560,"target":34962,"byteStride":12},{"buffer":0,"byteOffset":223560,"byteLength":223560,"target":34962,"byteStride":12},{"buffer":0,"byteOffset":447120,"byteLength":149040,"target":34962,"byteStride":8},{"buffer":0,"byteOffset":596160,"byteLength":149040,"target":34962,"byteStride":8},{"buffer":0,"byteOffset":745200,"byteLength":37260,"target":34963}],"buffers":[{"byteLength":782460,"uri":"data:application/octet-stream;base64,"}],"accessors":[{"bufferView":0,"componentType":5126,"count":18630,"max":[10,13,29.001449584960938],"min":[-10,-7,-23],"type":"VEC3"},{"bufferView":1,"componentType":5126,"count":18630,"max":[1,1,1],"min":[-1,-1,-1],"type":"VEC3"},{"bufferView":2,"componentType":5126,"count":18630,"max":[0.30000001192092896,0.4750000238418579],"min":[0,0],"type":"VEC2"},{"bufferView":3,"componentType":5126,"count":18630,"max":[-1,0],"min":[-1,0],"type":"VEC2"},{"bufferView":4,"componentType":5123,"count":18630,"max":[18629],"min":[0],"type":"SCALAR"}],"materials":[{"pbrMetallicRoughness":{"metallicFactor":0,"roughnessFactor":1,"baseColorTexture":{"index":0}},"alphaMode":"MASK","alphaCutoff":0.01,"name":"texture_1"}],"textures":[{"sampler":0,"source":0,"name":"texture_1"}],"samplers":[{"magFilter":9728,"minFilter":9728,"wrapS":33071,"wrapT":33071}],"images":[{"mimeType":"image/png","uri":"data:image/png;base64,"}],"meshes":[{"primitives":[{"mode":4,"attributes":{"POSITION":0,"NORMAL":1,"TEXCOORD_0":2,"_UVANIMATION":3},"indices":4,"material":0}]}]}