{"asset":{"version":"2.0","generator":"THREE.GLTFExporter"},"scenes":[{"name":"default","nodes":[0]}],"scene":0,"nodes":[{"name":"Three Way Intersection","extras":{"data":{"name":"Three Way Intersection","points":[{"name":"Origin","pos":{"x":0,"y":0,"z":0}}],"billboard":{"enabled":false,"y":false},"directional":{"enabled":false,"mode":"cameraAngle","angles":[]},"custom":[],"instances":[{"name":"Three Way Intersection","uuid":"29098C76-8741-4238-94E6-506D09C77665","parent":null,"pos":{"x":-19,"y":0,"z":10},"rot":{"x":0,"y":0,"z":0,"order":"XYZ"},"sca":{"x":1,"y":1,"z":1},"custom":[]}]}},"mesh":0}],"bufferViews":[{"buffer":0,"byteOffset":0,"byteLength":5472,"target":34962,"byteStride":12},{"buffer":0,"byteOffset":5472,"byteLength":5472,"target":34962,"byteStride":12},{"buffer":0,"byteOffset":10944,"byteLength":3648,"target":34962,"byteStride":8},{"buffer":0,"byteOffset":14592,"byteLength":3648,"target":34962,"byteStride":8},{"buffer":0,"byteOffset":18240,"byteLength":912,"target":34963}],"buffers":[{"byteLength":19152,"uri":"data:application/octet-stream;base64,"}],"accessors":[{"bufferView":0,"componentType":5126,"count":456,"max":[1,1.1102230246251565e-16,7],"min":[-7,-0.25,-1],"type":"VEC3"},{"bufferView":1,"componentType":5126,"count":456,"max":[1,1,1],"min":[-1,0,-1],"type":"VEC3"},{"bufferView":2,"componentType":5126,"count":456,"max":[0.1875,0.3125],"min":[0.0625,0.0625],"type":"VEC2"},{"bufferView":3,"componentType":5126,"count":456,"max":[-1,0],"min":[-1,0],"type":"VEC2"},{"bufferView":4,"componentType":5123,"count":456,"max":[455],"min":[0],"type":"SCALAR"}],"materials":[{"pbrMetallicRoughness":{"metallicFactor":0,"roughnessFactor":1,"baseColorTexture":{"index":0}},"alphaMode":"MASK","alphaCutoff":0.01,"name":"texture_1"}],"textures":[{"sampler":0,"source":0,"name":"texture_1"}],"samplers":[{"magFilter":9728,"minFilter":9728,"wrapS":33071,"wrapT":33071}],"images":[{"mimeType":"image/png","uri":"data:image/png;base64,"}],"meshes":[{"primitives":[{"mode":4,"attributes":{"POSITION":0,"NORMAL":1,"TEXCOORD_0":2,"_UVANIMATION":3},"indices":4,"material":0}]}]}